<svg width="86" height="85" viewBox="0 0 86 85" fill="none" xmlns="http://www.w3.org/2000/svg">
<path d="M78.4166 37.7778H7.58328C6.27927 37.7778 5.22217 38.8349 5.22217 40.1389V82.6389C5.22217 83.943 6.27927 85.0001 7.58328 85.0001H78.4166C79.7206 85.0001 80.7777 83.943 80.7777 82.6389V40.1389C80.7777 38.8349 79.7206 37.7778 78.4166 37.7778Z" fill="#FFF1F0"/>
<path d="M52.4689 23.5619C58.8615 23.5619 64.0421 28.8224 64.0421 36.1872C64.0421 50.9169 48.2604 59.3338 42.9999 62.4901C38.8377 59.9924 28.0935 54.2058 23.784 44.6041H33.6697L35.635 41.33L41.9477 51.8511L46.295 44.6041H53.521V40.3957H43.913L41.9477 43.6698L35.635 33.1487L31.2877 40.3957H22.3994C22.1132 39.0553 21.9575 37.6518 21.9575 36.1872C21.9575 28.8224 27.2181 23.5619 33.5307 23.5619C37.4446 23.5619 40.8955 25.6661 42.9999 27.7703C45.1041 25.6661 48.555 23.5619 52.4689 23.5619Z" fill="#F5222D"/>
</svg>
