<svg viewBox="0 0 512 512" xmlns="http://www.w3.org/2000/svg"><g id="Book_Donation" data-name="Book Donation"><rect fill="#ffb833" height="32.07" rx="2.86" width="5.86" x="74.09" y="231.42"/><rect fill="#ffb833" height="32.07" rx="2.86" transform="matrix(0 -1 1 0 -170.44 324.48)" width="5.86" x="74.09" y="231.42"/><rect fill="#ffb833" height="32.07" rx="2.86" width="5.86" x="430.95" y="201.41"/><rect fill="#ffb833" height="32.07" rx="2.86" transform="matrix(0 -1 1 0 216.43 651.32)" width="5.86" x="430.95" y="201.41"/><rect fill="#ffb833" height="37.55" rx="3.35" width="6.86" x="130.4" y="122.49"/><rect fill="#ffb833" height="37.55" rx="3.35" transform="matrix(0 -1 1 0 -7.43 275.1)" width="6.86" x="130.4" y="122.49"/><rect fill="#aaeeea" height="124.18" rx="8.85" width="199.18" x="183.28" y="54.36"/><path d="m351.72 166.19-13.44 31.73a3.41 3.41 0 0 1 -6 .47q-9.94-15.94-19.88-31.88z" fill="#aaeeea"/><path d="m286.37 88.4 8.79-6.59c24.12-18.07 53.49 14.93 32.57 36.61l-.55.56-34.69 34.69a9 9 0 0 1 -12.75 0l-33.82-33.82-.51-.52c-21.47-22.17 9-55.83 33.31-36.88z" fill="#00ccc1"/><path d="m190.26 99.71a2.5 2.5 0 0 1 -2.5-2.5v-28.33a9.39 9.39 0 0 1 9.38-9.38h30.86a2.5 2.5 0 0 1 0 5h-30.86a4.39 4.39 0 0 0 -4.38 4.38v28.33a2.5 2.5 0 0 1 -2.5 2.5z" fill="#fff"/><path d="m373.71 143.77a2.5 2.5 0 0 1 -2.5-2.5v-46.94a2.5 2.5 0 1 1 5 0v46.94a2.5 2.5 0 0 1 -2.5 2.5z" fill="#fff"/><path d="m291.29 173.21h-53.17a2.5 2.5 0 0 1 0-5h53.17a2.5 2.5 0 0 1 0 5z" fill="#fff"/><path d="m332 64.5h-35.17a2.5 2.5 0 0 1 0-5h35.17a2.5 2.5 0 0 1 0 5z" fill="#fff"/><path d="m253.75 57.46c-5.73 0-4.88 8.87.82 8.87s4.88-8.87-.82-8.87z" fill="#fff"/><path d="m190.17 120.61c-5.73 0-4.88 8.88.82 8.88s4.88-8.88-.82-8.88z" fill="#fff"/><path d="m314.77 163.71c-5.73 0-4.88 8.88.83 8.88s4.88-8.88-.83-8.88z" fill="#fff"/><path d="m372 65.14c-5.73 0-4.88 8.87.83 8.87s4.83-8.87-.83-8.87z" fill="#fff"/><path d="m374.51 157.31c-5.73 0-4.88 8.88.83 8.88s4.88-8.88-.83-8.88z" fill="#fff"/><path d="m61.31 409.31s2.79-95.79 23.8-119.31 157.69-31.37 157.69-31.37z" fill="#00ccc1"/><path d="m376.92 460.47 105.87-79.67v-80.2l-123.61 67.26-21.66 32.11z" fill="#fff3e3"/><path d="m376.92 460.47h-334.58a87.89 87.89 0 0 1 0-79.68h334.58a93.5 93.5 0 0 0 0 79.68z" fill="#ffb833"/><path d="m42.34 380.8 134.6-80.2h305.85l-106.43 80.2z" fill="#ffdb99"/><path d="m345.21 372.17 80.01-60.22v-60.61l-93.42 50.84-16.37 24.27z" fill="#fff3e3"/><path d="m345.21 372.17h-252.88a66.42 66.42 0 0 1 0-60.22h252.88a70.62 70.62 0 0 0 0 60.22z" fill="#ff535c"/><path d="m92.33 311.95 101.73-60.61h231.16l-80.44 60.61z" fill="#ff8d93"/><path d="m88.76 461a.49.49 0 0 1 -.41-.22c-24-34.37-3.9-79.71-3.69-80.16a.5.5 0 1 1 .91.41c-.2.45-20 45.27 3.6 79.18a.5.5 0 0 1 -.13.7.47.47 0 0 1 -.28.09z" fill="#383333"/><path d="m96.85 461a.5.5 0 0 1 -.41-.22c-24-34.37-3.89-79.71-3.69-80.16a.51.51 0 0 1 .66-.25.49.49 0 0 1 .25.66c-.2.45-20 45.27 3.6 79.18a.51.51 0 0 1 -.12.7.52.52 0 0 1 -.29.09z" fill="#383333"/><path d="m317.25 461a.5.5 0 0 1 -.41-.22c-24-34.37-3.89-79.71-3.69-80.16a.51.51 0 0 1 .66-.25.49.49 0 0 1 .25.66c-.2.45-20 45.27 3.6 79.18a.5.5 0 0 1 -.12.7.52.52 0 0 1 -.29.09z" fill="#383333"/><path d="m325.35 461a.49.49 0 0 1 -.41-.22c-24-34.37-3.9-79.71-3.69-80.16a.5.5 0 1 1 .91.41c-.2.45-20.05 45.27 3.6 79.18a.5.5 0 0 1 -.13.7.47.47 0 0 1 -.28.09z" fill="#383333"/><path d="m125.54 372.67a.49.49 0 0 1 -.41-.22c-16-23.63-3.18-60.3-3-60.66a.51.51 0 0 1 .64-.31.5.5 0 0 1 .3.64c-.13.37-12.79 36.56 2.93 59.77a.5.5 0 0 1 -.13.7.54.54 0 0 1 -.33.08z" fill="#383333"/><path d="m133.54 372.67a.5.5 0 0 1 -.41-.22c-16-23.63-3.18-60.3-3-60.66a.5.5 0 0 1 .63-.31.51.51 0 0 1 .31.64c-.13.37-12.8 36.56 2.93 59.77a.51.51 0 0 1 -.14.7.54.54 0 0 1 -.32.08z" fill="#383333"/><path d="m297.51 372.67a.49.49 0 0 1 -.41-.22c-16-23.63-3.18-60.3-3.05-60.66a.51.51 0 0 1 .64-.31.5.5 0 0 1 .3.64c-.13.37-12.79 36.56 2.93 59.77a.5.5 0 0 1 -.13.7.57.57 0 0 1 -.28.08z" fill="#383333"/><path d="m305.51 372.67a.5.5 0 0 1 -.41-.22c-16-23.63-3.18-60.3-3.05-60.66a.5.5 0 0 1 .95.33c-.13.37-12.8 36.56 2.93 59.77a.51.51 0 0 1 -.14.7.54.54 0 0 1 -.28.08z" fill="#383333"/><path d="m116.48 295.78q5.43-1.75 10.93-3.45a757.69 757.69 0 0 1 123.79-27 244.73 244.73 0 0 0 -29.14-2.88c-18.63-.6-45.38.5-77.86 7.27z" fill="#00ccc1"/><path d="m222.06 262.47s148.83 16.88 160.78 29.58 38.61 101 39.1 134.54c0 0 23.91-10.56 31.89-24 0 0-33.27-123.6-56.05-137.42s-175.72-2.7-175.72-2.7z" fill="#00ccc1"/><circle cx="239.42" cy="259.75" fill="#00ccc1" r="14.38"/><path d="m210.46 221.47c-21.06-4.11-31.14-4.48-42-2.24s-10.46 15.68-10.8 24.27 22.4 10.46 37 12.7 43.29 23.9 50.4 2.61c-.06 0-13.55-33.23-34.6-37.34zm-11.07 23.9c-11.21-.37-26.61-4.67-25.49-11.67s17.09-4.48 27.44-2 33.06 21.3 33.06 21.3c-2.4 9.63-23.81-7.26-35.01-7.63z" fill="#00ccc1"/><path d="m232.43 258.39c7.11 21.29 35.84-.37 50.4-2.61s37.35-4.11 37-12.7 0-22-10.83-24.27-20.91-1.87-42 2.24-34.57 37.34-34.57 37.34zm10.63-5.79s22.71-18.76 33.06-21.28 26.32-5 27.44 2-14.29 11.25-25.49 11.68-32.61 17.21-35.01 7.6z" fill="#00ccc1"/><path d="m228.22 269.24h-.09c-7-1.23-16.07-6.25-16.45-6.46a.5.5 0 0 1 .49-.88c.09.05 9.28 5.16 16.13 6.36a.5.5 0 0 1 -.08 1z" fill="#383333"/><path d="m227.35 268a.48.48 0 0 1 -.42-.23c-3.68-5.59-1.68-12.55-1.59-12.84a.5.5 0 1 1 .95.28c0 .07-1.95 6.81 1.47 12a.5.5 0 0 1 -.14.7.53.53 0 0 1 -.27.09z" fill="#383333"/><path d="m230 249.6a.5.5 0 0 1 -.36-.14.51.51 0 0 1 0-.71c.15-.15 3.63-3.57 8.14-3.44a.5.5 0 1 1 0 1c-4.05-.11-7.37 3.11-7.4 3.15a.49.49 0 0 1 -.38.14z" fill="#383333"/><path d="m247.7 248.48a.5.5 0 0 1 -.33-.12c-2.16-1.91-7.51-2.49-7.56-2.49a.5.5 0 0 1 -.45-.55.49.49 0 0 1 .55-.45c.23 0 5.72.62 8.12 2.74a.49.49 0 0 1 -.33.87z" fill="#383333"/><path d="m252.74 266.73a.46.46 0 0 1 -.23-.06.5.5 0 0 1 -.21-.67c2.65-5.14 0-11.42 0-11.48a.5.5 0 0 1 .92-.39c.12.27 2.86 6.76 0 12.33a.49.49 0 0 1 -.48.27z" fill="#383333"/><path d="m256 266a.5.5 0 0 1 -.19-1l14.81-5.82a.5.5 0 1 1 .37.93l-14.81 5.89a.58.58 0 0 1 -.18 0z" fill="#383333"/><path d="m234.4 265.54s-36.13 34.93-42 46.22-7.29 44.05-6.45 45.17 17.59-25.2 18.18-23 8.61 23.59 11 23-.09-40.93 2.15-44.57 30.83-47.74 17.12-46.82z" fill="#00ccc1"/><path d="m247.32 265.54s13.68 8.21 23.48 10.73 34.13 2.21 34.71 2.79-14.95 8.7-16 10.38 4.57 10.08 4 12.6-42.87-5-53.65-33.3z" fill="#00ccc1"/><g fill="#fff"><path d="m77 328.09a2.72 2.72 0 0 1 -.63-.08 2.5 2.5 0 0 1 -1.77-3.01 82.66 82.66 0 0 1 7.87-18.5c7.41-12.9 17.21-21.49 28.34-24.84a2.5 2.5 0 1 1 1.44 4.79c-24 7.23-32.73 39.48-32.81 39.81a2.52 2.52 0 0 1 -2.44 1.83z"/><path d="m165.94 235.2a2.56 2.56 0 0 1 -1.07-.24 2.49 2.49 0 0 1 -1.19-3.3c.31-.67 7.9-16.23 36-10a2.5 2.5 0 1 1 -1.07 4.88c-24-5.28-30.2 6.77-30.45 7.29a2.51 2.51 0 0 1 -2.22 1.37z"/><path d="m310 231.22a2.5 2.5 0 0 1 -1.95-.93c-7.08-8.84-31.84-3.16-40.78-.22a2.5 2.5 0 1 1 -1.56-4.75 111.75 111.75 0 0 1 18.56-4.14c13.75-1.79 23.06.22 27.68 6a2.5 2.5 0 0 1 -1.95 4.06z"/><path d="m195.67 324.84h-.38a2.49 2.49 0 0 1 -2.09-2.84c.08-.49 1.93-12.21 6.13-17.86 4-5.38 13.77-13.91 14.19-14.27a2.5 2.5 0 1 1 3.28 3.77c-.1.09-9.78 8.53-13.45 13.48-2.88 3.87-4.74 12.61-5.21 15.65a2.49 2.49 0 0 1 -2.47 2.07z"/><path d="m280.67 298.28h-.23c-10-.9-24.69-13.27-25.31-13.79a2.5 2.5 0 1 1 3.24-3.81c3.89 3.29 15.53 12 22.52 12.62a2.5 2.5 0 0 1 -.22 5z"/><path d="m410.16 301.06a2.5 2.5 0 0 1 -2.3-1.5c-.09-.2-9.11-20.73-17.12-26.74-6.6-4.95-28.32-7.24-36.13-7.7a2.5 2.5 0 0 1 .3-5c1.21.07 29.68 1.83 38.83 8.69s18.32 27.85 18.71 28.74a2.5 2.5 0 0 1 -1.3 3.29 2.32 2.32 0 0 1 -.99.22z"/><path d="m40.27 434.39a2.5 2.5 0 0 1 -2.42-1.88 59.43 59.43 0 0 1 7.9-47.4 2.5 2.5 0 0 1 4.18 2.75 54.3 54.3 0 0 0 -7.23 43.4 2.51 2.51 0 0 1 -1.8 3.05 2.72 2.72 0 0 1 -.63.08z"/><path d="m92.33 353.51a2.49 2.49 0 0 1 -2.45-2c-.2-1-4.7-24.38 5.05-36.15a2.5 2.5 0 1 1 3.85 3.18c-8.25 10-4 31.78-4 32a2.49 2.49 0 0 1 -2 2.93 2.09 2.09 0 0 1 -.45.04z"/><path d="m256.75 454.21h-145.22a2.5 2.5 0 0 1 0-5h145.22a2.5 2.5 0 0 1 0 5z"/><path d="m247.7 363.4h-95.65a2.5 2.5 0 0 1 0-5h95.65a2.5 2.5 0 0 1 0 5z"/><path d="m328.46 454.21a2.47 2.47 0 0 1 -2.06-1.09c-17.21-25.06-3.87-52.87-3.3-54.05a2.5 2.5 0 1 1 4.49 2.21c-.13.26-12.59 26.4 2.93 49a2.51 2.51 0 0 1 -2.06 3.92z"/><path d="m382.46 449a2.5 2.5 0 0 1 -1.46-4.53l27.7-19.89a2.5 2.5 0 1 1 2.91 4.06l-27.69 19.89a2.49 2.49 0 0 1 -1.46.47z"/><path d="m350.26 363.4a2.5 2.5 0 0 1 -1.51-4.49l26.66-20.2a2.5 2.5 0 0 1 3 4l-26.66 20.2a2.48 2.48 0 0 1 -1.49.49z"/><path d="m475.11 363.4a2.5 2.5 0 0 1 -2.5-2.5v-38.56a2.5 2.5 0 0 1 5 0v38.56a2.5 2.5 0 0 1 -2.5 2.5z"/><path d="m475 370.58c-4.84 0-4.13 7.49.69 7.49s4.16-7.49-.69-7.49z"/><path d="m417.11 309.23c-4.84 0-4.12 7.49.7 7.49s4.12-7.49-.7-7.49z"/><path d="m335 258.42c-4.83 0-4.12 7.5.7 7.5s4.07-7.5-.7-7.5z"/><path d="m249.91 269.23c-4.83 0-4.12 7.5.7 7.5s4.12-7.5-.7-7.5z"/><path d="m193.34 331.93c-4.84 0-4.12 7.49.7 7.49s4.12-7.49-.7-7.49z"/><path d="m262.17 356.07c-4.84 0-4.13 7.5.69 7.5s4.14-7.5-.69-7.5z"/><path d="m137.13 358.6c-4.84 0-4.12 7.49.7 7.49s4.17-7.49-.7-7.49z"/><path d="m95.33 362.2c-4.84 0-4.12 7.49.7 7.49s4.12-7.49-.7-7.49z"/><path d="m127 275.36c-4.84 0-4.12 7.49.7 7.49s4.16-7.49-.7-7.49z"/><path d="m168.48 241.13c-4.84 0-4.12 7.49.69 7.49s4.13-7.49-.69-7.49z"/><path d="m213.16 226.35c-4.84 0-4.12 7.49.7 7.49s4.14-7.49-.7-7.49z"/><path d="m257.12 230.31c-4.84 0-4.12 7.5.7 7.5s4.12-7.5-.7-7.5z"/><path d="m310.45 237.16c-4.84 0-4.12 7.5.7 7.5s4.12-7.5-.7-7.5z"/><path d="m47.23 446c-4.84 0-4.13 7.49.69 7.49s4.08-7.49-.69-7.49z"/><path d="m273.16 447.6c-4.84 0-4.12 7.49.69 7.49s4.15-7.49-.69-7.49z"/><path d="m331.53 384.9c-4.84 0-4.12 7.49.7 7.49s4.12-7.49-.7-7.49z"/><path d="m92.45 450.12c-4.84 0-4.12 7.49.69 7.49s4.13-7.49-.69-7.49z"/></g></g></svg>