<svg width="86" height="85" viewBox="0 0 86 85" fill="none" xmlns="http://www.w3.org/2000/svg">
<path d="M78.4166 37.7778H7.58328C6.27927 37.7778 5.22217 38.8349 5.22217 40.1389V82.6389C5.22217 83.943 6.27927 85.0001 7.58328 85.0001H78.4166C79.7206 85.0001 80.7777 83.943 80.7777 82.6389V40.1389C80.7777 38.8349 79.7206 37.7778 78.4166 37.7778Z" fill="white"/>
<path d="M67.2667 60H65.5333V26C65.5333 25.4696 65.3507 24.9609 65.0257 24.5858C64.7006 24.2107 64.2597 24 63.8 24H55.1333V18C55.1333 17.4696 54.9507 16.9609 54.6257 16.5858C54.3006 16.2107 53.8597 16 53.4 16H32.6C32.1403 16 31.6994 16.2107 31.3743 16.5858C31.0493 16.9609 30.8667 17.4696 30.8667 18V32H22.2C21.7403 32 21.2994 32.2107 20.9743 32.5858C20.6493 32.9609 20.4667 33.4696 20.4667 34V60H18.7333C18.2736 60 17.8327 60.2107 17.5077 60.5858C17.1826 60.9609 17 61.4696 17 62C17 62.5304 17.1826 63.0391 17.5077 63.4142C17.8327 63.7893 18.2736 64 18.7333 64H67.2667C67.7264 64 68.1673 63.7893 68.4923 63.4142C68.8174 63.0391 69 62.5304 69 62C69 61.4696 68.8174 60.9609 68.4923 60.5858C68.1673 60.2107 67.7264 60 67.2667 60ZM32.6 52H29.1333C28.6736 52 28.2327 51.7893 27.9077 51.4142C27.5826 51.0391 27.4 50.5304 27.4 50C27.4 49.4696 27.5826 48.9609 27.9077 48.5858C28.2327 48.2107 28.6736 48 29.1333 48H32.6C33.0597 48 33.5006 48.2107 33.8257 48.5858C34.1507 48.9609 34.3333 49.4696 34.3333 50C34.3333 50.5304 34.1507 51.0391 33.8257 51.4142C33.5006 51.7893 33.0597 52 32.6 52ZM32.6 44H29.1333C28.6736 44 28.2327 43.7893 27.9077 43.4142C27.5826 43.0391 27.4 42.5304 27.4 42C27.4 41.4696 27.5826 40.9609 27.9077 40.5858C28.2327 40.2107 28.6736 40 29.1333 40H32.6C33.0597 40 33.5006 40.2107 33.8257 40.5858C34.1507 40.9609 34.3333 41.4696 34.3333 42C34.3333 42.5304 34.1507 43.0391 33.8257 43.4142C33.5006 43.7893 33.0597 44 32.6 44ZM46.4667 60H39.5333V50H46.4667V60ZM44.7333 44H41.2667C40.807 44 40.3661 43.7893 40.041 43.4142C39.716 43.0391 39.5333 42.5304 39.5333 42C39.5333 41.4696 39.716 40.9609 40.041 40.5858C40.3661 40.2107 40.807 40 41.2667 40H44.7333C45.193 40 45.6339 40.2107 45.959 40.5858C46.284 40.9609 46.4667 41.4696 46.4667 42C46.4667 42.5304 46.284 43.0391 45.959 43.4142C45.6339 43.7893 45.193 44 44.7333 44ZM44.7333 36H41.2667C40.807 36 40.3661 35.7893 40.041 35.4142C39.716 35.0391 39.5333 34.5304 39.5333 34C39.5333 33.4696 39.716 32.9609 40.041 32.5858C40.3661 32.2107 40.807 32 41.2667 32H44.7333C45.193 32 45.6339 32.2107 45.959 32.5858C46.284 32.9609 46.4667 33.4696 46.4667 34C46.4667 34.5304 46.284 35.0391 45.959 35.4142C45.6339 35.7893 45.193 36 44.7333 36ZM44.7333 28H41.2667C40.807 28 40.3661 27.7893 40.041 27.4142C39.716 27.0391 39.5333 26.5304 39.5333 26C39.5333 25.4696 39.716 24.9609 40.041 24.5858C40.3661 24.2107 40.807 24 41.2667 24H44.7333C45.193 24 45.6339 24.2107 45.959 24.5858C46.284 24.9609 46.4667 25.4696 46.4667 26C46.4667 26.5304 46.284 27.0391 45.959 27.4142C45.6339 27.7893 45.193 28 44.7333 28ZM56.8667 52H53.4C52.9403 52 52.4994 51.7893 52.1743 51.4142C51.8493 51.0391 51.6667 50.5304 51.6667 50C51.6667 49.4696 51.8493 48.9609 52.1743 48.5858C52.4994 48.2107 52.9403 48 53.4 48H56.8667C57.3264 48 57.7673 48.2107 58.0923 48.5858C58.4174 48.9609 58.6 49.4696 58.6 50C58.6 50.5304 58.4174 51.0391 58.0923 51.4142C57.7673 51.7893 57.3264 52 56.8667 52ZM56.8667 44H53.4C52.9403 44 52.4994 43.7893 52.1743 43.4142C51.8493 43.0391 51.6667 42.5304 51.6667 42C51.6667 41.4696 51.8493 40.9609 52.1743 40.5858C52.4994 40.2107 52.9403 40 53.4 40H56.8667C57.3264 40 57.7673 40.2107 58.0923 40.5858C58.4174 40.9609 58.6 41.4696 58.6 42C58.6 42.5304 58.4174 43.0391 58.0923 43.4142C57.7673 43.7893 57.3264 44 56.8667 44ZM56.8667 36H53.4C52.9403 36 52.4994 35.7893 52.1743 35.4142C51.8493 35.0391 51.6667 34.5304 51.6667 34C51.6667 33.4696 51.8493 32.9609 52.1743 32.5858C52.4994 32.2107 52.9403 32 53.4 32H56.8667C57.3264 32 57.7673 32.2107 58.0923 32.5858C58.4174 32.9609 58.6 33.4696 58.6 34C58.6 34.5304 58.4174 35.0391 58.0923 35.4142C57.7673 35.7893 57.3264 36 56.8667 36Z" fill="#F5222D"/>
</svg>
