<svg width="86" height="85" viewBox="0 0 86 85" fill="none" xmlns="http://www.w3.org/2000/svg">
<path d="M78.4166 37.7778H7.58328C6.27927 37.7778 5.22217 38.8349 5.22217 40.1389V82.6389C5.22217 83.943 6.27927 85.0001 7.58328 85.0001H78.4166C79.7206 85.0001 80.7777 83.943 80.7777 82.6389V40.1389C80.7777 38.8349 79.7206 37.7778 78.4166 37.7778Z" fill="white"/>
<path d="M28.4065 45.0797C28.4125 45.1995 28.3941 45.3193 28.3523 45.4318C28.3106 45.5443 28.2464 45.6471 28.1636 45.734C28.0809 45.8208 27.9813 45.89 27.871 45.9372C27.7607 45.9844 27.642 46.0086 27.522 46.0085H17.7656C17.3663 46.0091 16.9786 45.8746 16.6654 45.6269C16.3523 45.3792 16.1321 45.0328 16.0408 44.6441C15.9839 44.378 15.9865 44.1027 16.0485 43.8378C16.1104 43.5729 16.2301 43.3249 16.399 43.1116C17.9598 41.0418 20.0307 39.4121 22.4094 38.3816C21.3651 37.4294 20.5641 36.2409 20.0735 34.9154C19.583 33.59 19.4172 32.1664 19.59 30.7637C19.7628 29.3611 20.2692 28.0202 21.0668 26.8535C21.8643 25.6868 22.9299 24.7282 24.1741 24.0579C25.4183 23.3877 26.8051 23.0254 28.2181 23.0013C29.6312 22.9772 31.0295 23.292 32.2958 23.9195C33.5622 24.5469 34.6598 25.4686 35.4966 26.6075C36.3335 27.7463 36.8853 29.0691 37.1059 30.4651C37.1343 30.6528 37.1007 30.8447 37.0101 31.0115C36.9195 31.1784 36.7769 31.3111 36.6039 31.3894C34.1502 32.5238 32.0722 34.3363 30.615 36.6132C29.1578 38.89 28.3823 41.5362 28.38 44.2394C28.38 44.5225 28.38 44.8011 28.4065 45.0797ZM68.6526 43.1094C67.0954 41.042 65.0293 39.4131 62.6555 38.3816C63.6998 37.4294 64.5008 36.2409 64.9914 34.9154C65.4819 33.59 65.6477 32.1664 65.4749 30.7637C65.3021 29.3611 64.7957 28.0202 63.9981 26.8535C63.2006 25.6868 62.135 24.7282 60.8908 24.0579C59.6466 23.3877 58.2598 23.0254 56.8468 23.0013C55.4337 22.9772 54.0354 23.292 52.7691 23.9195C51.5027 24.5469 50.4051 25.4686 49.5683 26.6075C48.7314 27.7463 48.1796 29.0691 47.959 30.4651C47.9306 30.6528 47.9642 30.8447 48.0548 31.0115C48.1454 31.1784 48.288 31.3111 48.461 31.3894C50.9147 32.5238 52.9928 34.3363 54.4499 36.6132C55.9071 38.89 56.6826 41.5362 56.6849 44.2394C56.6849 44.5225 56.6849 44.8011 56.6584 45.0797C56.6524 45.1995 56.6708 45.3193 56.7126 45.4318C56.7543 45.5443 56.8185 45.6471 56.9013 45.734C56.984 45.8208 57.0836 45.89 57.1939 45.9372C57.3042 45.9844 57.4229 46.0086 57.5429 46.0085H67.2993C67.6986 46.0091 68.0863 45.8746 68.3995 45.6269C68.7126 45.3792 68.9328 45.0328 69.0241 44.6441C69.0813 44.3775 69.0787 44.1016 69.0163 43.8362C68.954 43.5709 68.8336 43.3226 68.6637 43.1094H68.6526ZM48.9718 52.6579C50.7333 51.3089 52.0277 49.4419 52.6732 47.3193C53.3187 45.1966 53.2829 42.925 52.5707 40.8238C51.8585 38.7225 50.5058 36.8973 48.7027 35.6046C46.8996 34.3118 44.7367 33.6166 42.5181 33.6166C40.2994 33.6166 38.1366 34.3118 36.3334 35.6046C34.5303 36.8973 33.1776 38.7225 32.4654 40.8238C31.7533 42.925 31.7174 45.1966 32.3629 47.3193C33.0085 49.4419 34.3029 51.3089 36.0643 52.6579C32.9387 54.0122 30.3287 56.3316 28.6166 59.2764C28.4613 59.5454 28.3796 59.8505 28.3796 60.161C28.3796 60.4716 28.4614 60.7767 28.6167 61.0456C28.772 61.3146 28.9954 61.5379 29.2644 61.6931C29.5334 61.8484 29.8385 61.9301 30.149 61.93H54.9159C55.2264 61.9301 55.5315 61.8484 55.8005 61.6931C56.0695 61.5379 56.2929 61.3146 56.4482 61.0456C56.6035 60.7767 56.6853 60.4716 56.6853 60.161C56.6853 59.8505 56.6036 59.5454 56.4483 59.2764C54.7325 56.3296 52.1177 54.0101 48.9873 52.6579H48.9718Z" fill="#F5222D"/>
</svg>
